<mxfile host="app.diagrams.net" agent="Mozilla/5.0 (Windows NT 10.0; Win64; x64) AppleWebKit/537.36 (KHTML, like Gecko) Chrome/131.0.0.0 Safari/537.36" version="25.0.0">
  <diagram name="Page-1" id="OfLdZZOK6KDnWr3jfZTO">
    <mxGraphModel dx="714" dy="367" grid="0" gridSize="10" guides="1" tooltips="1" connect="1" arrows="1" fold="1" page="0" pageScale="1" pageWidth="827" pageHeight="1169" math="0" shadow="0">
      <root>
        <mxCell id="0" />
        <mxCell id="1" parent="0" />
        <mxCell id="7VM7z7aFbBYLMW6_h5Je-25" value="" style="ellipse;fillColor=strokeColor;" vertex="1" parent="1">
          <mxGeometry x="170" y="20" width="14" height="14" as="geometry" />
        </mxCell>
        <mxCell id="7VM7z7aFbBYLMW6_h5Je-26" value="LoggedOut" style="rounded=1;arcSize=40;strokeWidth=2" vertex="1" parent="1">
          <mxGeometry x="131" y="84" width="92" height="34" as="geometry" />
        </mxCell>
        <mxCell id="7VM7z7aFbBYLMW6_h5Je-27" value="Login" style="rounded=1;arcSize=40;strokeWidth=2" vertex="1" parent="1">
          <mxGeometry x="104" y="191" width="54" height="34" as="geometry" />
        </mxCell>
        <mxCell id="7VM7z7aFbBYLMW6_h5Je-28" value="MainMenu" style="rounded=1;arcSize=40;strokeWidth=2" vertex="1" parent="1">
          <mxGeometry x="133" y="298" width="87" height="34" as="geometry" />
        </mxCell>
        <mxCell id="7VM7z7aFbBYLMW6_h5Je-29" value="SelectAppointment" style="rounded=1;arcSize=40;strokeWidth=2" vertex="1" parent="1">
          <mxGeometry x="22" y="404" width="153" height="34" as="geometry" />
        </mxCell>
        <mxCell id="7VM7z7aFbBYLMW6_h5Je-30" value="ViewPatientList" style="rounded=1;arcSize=40;strokeWidth=2" vertex="1" parent="1">
          <mxGeometry x="35" y="529" width="128" height="34" as="geometry" />
        </mxCell>
        <mxCell id="7VM7z7aFbBYLMW6_h5Je-31" value="InputMedicalRecord" style="rounded=1;arcSize=40;strokeWidth=2" vertex="1" parent="1">
          <mxGeometry x="20" y="653" width="157" height="34" as="geometry" />
        </mxCell>
        <mxCell id="7VM7z7aFbBYLMW6_h5Je-32" value="SaveMedicalRecord" style="rounded=1;arcSize=40;strokeWidth=2" vertex="1" parent="1">
          <mxGeometry x="101" y="760" width="152" height="34" as="geometry" />
        </mxCell>
        <mxCell id="7VM7z7aFbBYLMW6_h5Je-33" value="" style="curved=1;startArrow=none;;exitX=0.5;exitY=1;entryX=0.5;entryY=0;rounded=0;fontSize=12;startSize=8;endSize=8;" edge="1" parent="1" source="7VM7z7aFbBYLMW6_h5Je-25" target="7VM7z7aFbBYLMW6_h5Je-26">
          <mxGeometry relative="1" as="geometry">
            <Array as="points" />
          </mxGeometry>
        </mxCell>
        <mxCell id="7VM7z7aFbBYLMW6_h5Je-34" value="Enter credentials" style="curved=1;startArrow=none;;exitX=0.34;exitY=1.01;entryX=0.49;entryY=-0.01;rounded=0;fontSize=12;startSize=8;endSize=8;" edge="1" parent="1" source="7VM7z7aFbBYLMW6_h5Je-26" target="7VM7z7aFbBYLMW6_h5Je-27">
          <mxGeometry relative="1" as="geometry">
            <Array as="points">
              <mxPoint x="131" y="155" />
            </Array>
          </mxGeometry>
        </mxCell>
        <mxCell id="7VM7z7aFbBYLMW6_h5Je-35" value="Credentials verified" style="curved=1;startArrow=none;;exitX=0.49;exitY=1.01;entryX=0.33;entryY=-0.01;rounded=0;fontSize=12;startSize=8;endSize=8;" edge="1" parent="1" source="7VM7z7aFbBYLMW6_h5Je-27" target="7VM7z7aFbBYLMW6_h5Je-28">
          <mxGeometry relative="1" as="geometry">
            <Array as="points">
              <mxPoint x="131" y="261" />
            </Array>
          </mxGeometry>
        </mxCell>
        <mxCell id="7VM7z7aFbBYLMW6_h5Je-36" value="Choose an appointment" style="curved=1;startArrow=none;;exitX=0.22;exitY=1;entryX=0.5;entryY=0.01;rounded=0;fontSize=12;startSize=8;endSize=8;" edge="1" parent="1" source="7VM7z7aFbBYLMW6_h5Je-28" target="7VM7z7aFbBYLMW6_h5Je-29">
          <mxGeometry relative="1" as="geometry">
            <Array as="points">
              <mxPoint x="99" y="368" />
            </Array>
          </mxGeometry>
        </mxCell>
        <mxCell id="7VM7z7aFbBYLMW6_h5Je-37" value="View patients for the appointment" style="curved=1;startArrow=none;;exitX=0.5;exitY=1.02;entryX=0.5;entryY=-0.01;rounded=0;fontSize=12;startSize=8;endSize=8;" edge="1" parent="1" source="7VM7z7aFbBYLMW6_h5Je-29" target="7VM7z7aFbBYLMW6_h5Je-30">
          <mxGeometry relative="1" as="geometry">
            <Array as="points" />
          </mxGeometry>
        </mxCell>
        <mxCell id="7VM7z7aFbBYLMW6_h5Je-38" value="Select a patient and input data" style="curved=1;startArrow=none;;exitX=0.5;exitY=1.01;entryX=0.5;entryY=0.01;rounded=0;fontSize=12;startSize=8;endSize=8;" edge="1" parent="1" source="7VM7z7aFbBYLMW6_h5Je-30" target="7VM7z7aFbBYLMW6_h5Je-31">
          <mxGeometry relative="1" as="geometry">
            <Array as="points" />
          </mxGeometry>
        </mxCell>
        <mxCell id="7VM7z7aFbBYLMW6_h5Je-39" value="Confirm and save" style="curved=1;startArrow=none;;exitX=0.5;exitY=1.02;entryX=0.33;entryY=0;rounded=0;fontSize=12;startSize=8;endSize=8;" edge="1" parent="1" source="7VM7z7aFbBYLMW6_h5Je-31" target="7VM7z7aFbBYLMW6_h5Je-32">
          <mxGeometry relative="1" as="geometry">
            <Array as="points">
              <mxPoint x="99" y="724" />
            </Array>
          </mxGeometry>
        </mxCell>
        <mxCell id="7VM7z7aFbBYLMW6_h5Je-40" value="Return to menu" style="curved=1;startArrow=none;;exitX=0.67;exitY=0;entryX=0.8;entryY=1;rounded=0;fontSize=12;startSize=8;endSize=8;" edge="1" parent="1" source="7VM7z7aFbBYLMW6_h5Je-32" target="7VM7z7aFbBYLMW6_h5Je-28">
          <mxGeometry relative="1" as="geometry">
            <Array as="points">
              <mxPoint x="255" y="724" />
              <mxPoint x="255" y="368" />
            </Array>
          </mxGeometry>
        </mxCell>
        <mxCell id="7VM7z7aFbBYLMW6_h5Je-41" value="Log out" style="curved=1;startArrow=none;;exitX=0.68;exitY=-0.01;entryX=0.66;entryY=1.01;rounded=0;fontSize=12;startSize=8;endSize=8;" edge="1" parent="1" source="7VM7z7aFbBYLMW6_h5Je-28" target="7VM7z7aFbBYLMW6_h5Je-26">
          <mxGeometry relative="1" as="geometry">
            <Array as="points">
              <mxPoint x="223" y="261" />
              <mxPoint x="223" y="155" />
            </Array>
          </mxGeometry>
        </mxCell>
      </root>
    </mxGraphModel>
  </diagram>
</mxfile>
